<svg width="112" height="36" viewBox="0 0 112 36" fill="none" xmlns="http://www.w3.org/2000/svg">
<path d="M30.1 21.3V21.2C30.1 21.2 30.1 21.1 30 21.1L29.9 21L29.8 20.9C29.8 20.9 29.7001 20.9 29.7001 20.8H29.6C29.5 20.8 29.4 20.8 29.3 20.8H29.2001C29.2001 20.8 29.1 20.8 29.1 20.9L29 21L28.9 21.1C28.9 21.1 28.9 21.2 28.8 21.2V21.3V21.4V21.5V21.6C28.8 21.6 28.8 21.7 28.9 21.7L29 21.8L29.1 21.9C29.1 21.9 29.2001 21.9 29.2001 22H29.3H29.4H29.5H29.6C29.6 22 29.7001 22 29.7001 21.9L29.8 21.8L29.9 21.7C29.9 21.7 29.9 21.6 30 21.6V21.5V21.4C30.1 21.3 30.1 21.3 30.1 21.3Z" fill="#FECA57"/>
<path d="M11.3 28.1V28C11.3 28 11.3 27.9 11.2 27.9L11.1 27.8L11 27.7C11 27.7 10.9 27.7 10.9 27.6H10.8C10.7 27.6 10.6 27.6 10.5 27.6H10.4C10.4 27.6 10.3 27.6 10.3 27.7L10.2 27.8L10.1 27.9C10.1 27.9 10.1 28 10 28V28.1V28.2V28.3V28.4C10 28.4 10 28.5 10.1 28.5L10.2 28.6L10.3 28.7C10.3 28.7 10.4 28.7 10.4 28.8H10.5H10.6C10.8 28.8 11 28.7 11.1 28.6L11.2 28.5C11.2 28.5 11.2 28.4 11.3 28.4V28.3V28.2V28.1Z" fill="#FECA57"/>
<path d="M36 25.7C36 24.7 35.5 23.7 34.6 23.2C34.3 21.1 33.3 19.1 31.7 17.7C30 16.1 27.8 15.3 25.5 15.3H19.9L20 13.9H20.4C20.8 13.9 21.1 13.6 21.1 13.2V9.90001C21.1 9.50001 20.8 9.20001 20.4 9.20001H19.1L18.5 6.90001C18.4 6.60001 18.1 6.40001 17.8 6.40001H11.2V1.60001H14C14.4 1.60001 14.7 1.30001 14.7 0.900012C14.7 0.500012 14.4 0.200012 14 0.200012H10.6C10.2 0.200012 9.9 0.500012 9.9 0.900012V6.30001H3.3C3 6.30001 2.7 6.50001 2.6 6.80001L2.1 9.20001H0.7C0.3 9.20001 0 9.50001 0 9.90001V13.2C0 13.6 0.3 13.9 0.7 13.9H1.1L2.9 35.1C2.9 35.5 3.2 35.7 3.6 35.7L28.4 35.8C31.5 35.8 34.2 33.5 34.6 30.5C35 30.2 35.3 29.6 35.3 29.1C35.3 28.7 35.2 28.3 34.9 28C35.6 27.4 36 26.6 36 25.7ZM34.4 24.9H19.1L19.2 24.2H33.1C33.6 24.2 34.1 24.5 34.4 24.9ZM21.2 16.7H21.7V17.7C21.7 18.1 22 18.4 22.4 18.4C22.8 18.4 23.1 18.1 23.1 17.7V16.7H23.6L25.3 18.2C25.4 18.3 25.6 18.4 25.8 18.4C26 18.4 26.2 18.3 26.3 18.2C26.6 17.9 26.5 17.5 26.2 17.2L25.7 16.8C29.3 16.9 32.3 19.5 33 22.9H19.3L19.4 22.2H26.7C27.1 22.2 27.4 21.9 27.4 21.5C27.4 21.1 27.1 20.8 26.7 20.8H19.5L19.7 18.1L21.2 16.7ZM3.9 7.70001H17.4L17.8 9.10001H3.5L3.9 7.70001ZM1.4 10.6H19.7V12.5H1.4V10.6ZM9.9 23.1V25.5C9.9 25.9 10.2 26.2 10.6 26.2C11 26.2 11.3 25.9 11.3 25.5V23.1H15.4L14.7 31.5H6.4L5.7 23.1H9.9ZM5.6 21.7L5.2 16.6H9.9V21.7H5.6ZM11.3 21.7V16.6H15.9L15.5 21.7H11.3ZM4.2 34.3L2.5 13.9H9.9V15.3H4.4C4.2 15.3 4 15.4 3.9 15.5C3.8 15.6 3.7 15.8 3.7 16L5.1 32.3C5.1 32.7 5.4 32.9 5.8 32.9H15.4C15.8 32.9 16.1 32.6 16.1 32.3L17.4 16C17.4 15.8 17.4 15.6 17.2 15.5C17.1 15.4 16.9 15.3 16.7 15.3H11.3V13.9H18.6L18.4 15.9L16.9 34.3H4.2ZM28.4 34.4L18.3 34.3L18.5 31.4C18.8 31.5 19 31.7 19.3 31.9C19.8 32.3 20.5 32.8 21.8 32.8C23.1 32.8 23.7 32.3 24.3 31.9C24.8 31.5 25.1 31.3 26 31.3C26.8 31.3 27.2 31.6 27.7 31.9C28.2 32.3 28.9 32.8 30.2 32.8C31.4 32.8 32.2 32.1 32.8 31.5C32.8 31.5 32.8 31.5 32.9 31.4C32.1 33.2 30.4 34.4 28.4 34.4ZM33.6 29.5C33.5 29.5 33.4 29.5 33.3 29.6C32.7 29.8 32.3 30.2 31.9 30.5C31.3 31 30.9 31.4 30.2 31.4C29.4 31.4 29 31.1 28.5 30.8C28 30.4 27.3 29.9 26 29.9C24.7 29.9 24.1 30.4 23.5 30.8C23 31.2 22.7 31.4 21.8 31.4C21 31.4 20.6 31.1 20.1 30.8C19.7 30.5 19.3 30.2 18.6 30L18.7 28.6H33.3C33.5 28.6 33.8 28.8 33.8 29.1C33.9 29.2 33.8 29.4 33.6 29.5ZM33.1 27.2H18.9L19 26.3H34.5C34.2 26.8 33.7 27.2 33.1 27.2Z" fill="#FCC419"/>
<path d="M75.6 12H71.9V15.8H70V6.5H76.1V8.1H71.9V10.5H75.6V12Z" fill="white"/>
<path d="M76.6001 12.3C76.6001 11.6 76.7001 11 77.0001 10.4C77.3001 9.80001 77.7001 9.40001 78.2001 9.10001C78.7001 8.80001 79.3001 8.70001 79.9001 8.70001C80.8001 8.70001 81.6001 9.00001 82.2001 9.60001C82.8001 10.2 83.1001 11 83.2001 12V12.5C83.2001 13.6 82.9001 14.4 82.3001 15.1C81.7001 15.7 80.9001 16.1 79.9001 16.1C78.9001 16.1 78.1001 15.8 77.5001 15.1C76.9001 14.4 76.6001 13.5 76.6001 12.3ZM78.5001 12.5C78.5001 13.2 78.6001 13.7 78.9001 14C79.2001 14.4 79.5001 14.5 80.0001 14.5C80.5001 14.5 80.8001 14.3 81.1001 14C81.4001 13.7 81.5001 13.1 81.5001 12.3C81.5001 11.6 81.4001 11.1 81.1001 10.8C80.8001 10.4 80.5001 10.3 80.0001 10.3C79.5001 10.3 79.2001 10.5 78.9001 10.8C78.6001 11.2 78.5001 11.7 78.5001 12.5Z" fill="white"/>
<path d="M84.1001 12.3C84.1001 11.6 84.2001 11 84.5001 10.4C84.8001 9.90001 85.2001 9.40001 85.7001 9.10001C86.2001 8.80001 86.8001 8.70001 87.4001 8.70001C88.3001 8.70001 89.1001 9.00001 89.7001 9.60001C90.3001 10.2 90.6001 11 90.7001 12V12.5C90.7001 13.6 90.4001 14.4 89.8001 15.1C89.2001 15.7 88.4001 16.1 87.4001 16.1C86.4001 16.1 85.6001 15.8 85.0001 15.1C84.4001 14.4 84.1001 13.5 84.1001 12.3ZM86.0001 12.5C86.0001 13.2 86.1001 13.7 86.4001 14C86.6001 14.4 87.0001 14.5 87.5001 14.5C88.0001 14.5 88.3001 14.3 88.6001 14C88.9001 13.7 89.0001 13.1 89.0001 12.3C89.0001 11.6 88.9001 11.1 88.6001 10.8C88.3001 10.4 88.0001 10.3 87.5001 10.3C87.0001 10.3 86.7001 10.5 86.4001 10.8C86.1001 11.2 86.0001 11.7 86.0001 12.5Z" fill="white"/>
<path d="M91.6001 12.3C91.6001 11.2 91.8001 10.3 92.3001 9.7C92.8001 9.1 93.5001 8.7 94.3001 8.7C95.0001 8.7 95.5001 9 96.0001 9.5V6H97.9001V15.9H96.2001L96.1001 15.1C95.6001 15.7 95.0001 16 94.3001 16C93.5001 16 92.8001 15.7 92.3001 15C91.8001 14.4 91.6001 13.5 91.6001 12.3ZM93.5001 12.5C93.5001 13.2 93.6001 13.7 93.8001 14C94.0001 14.3 94.4001 14.5 94.8001 14.5C95.4001 14.5 95.8001 14.3 96.0001 13.8V11C95.8001 10.5 95.4001 10.3 94.8001 10.3C93.9001 10.3 93.5001 11 93.5001 12.5Z" fill="white"/>
<path d="M44.8182 30H41.8608V21.2727H44.8778C45.7443 21.2727 46.4886 21.4474 47.1108 21.7969C47.7358 22.1435 48.2159 22.642 48.5511 23.2926C48.8864 23.9432 49.054 24.7216 49.054 25.6278C49.054 26.5369 48.8849 27.3182 48.5469 27.9716C48.2116 28.625 47.7273 29.1264 47.0938 29.4759C46.4631 29.8253 45.7045 30 44.8182 30ZM43.4418 28.6321H44.7415C45.3494 28.6321 45.8565 28.5213 46.2628 28.2997C46.669 28.0753 46.9744 27.7415 47.179 27.2983C47.3835 26.8523 47.4858 26.2955 47.4858 25.6278C47.4858 24.9602 47.3835 24.4062 47.179 23.9659C46.9744 23.5227 46.6719 23.1918 46.2713 22.973C45.8736 22.7514 45.3793 22.6406 44.7884 22.6406H43.4418V28.6321ZM53.3857 30.1278C52.7294 30.1278 52.1626 29.9915 51.6854 29.7188C51.2109 29.4432 50.8459 29.054 50.5902 28.5511C50.3345 28.0455 50.2067 27.4503 50.2067 26.7656C50.2067 26.0923 50.3345 25.5014 50.5902 24.9929C50.8487 24.4815 51.2095 24.0838 51.6726 23.7997C52.1357 23.5128 52.6797 23.3693 53.3047 23.3693C53.7081 23.3693 54.0888 23.4347 54.4467 23.5653C54.8075 23.6932 55.1257 23.892 55.4013 24.1619C55.6797 24.4318 55.8984 24.7756 56.0575 25.1932C56.2166 25.608 56.2962 26.1023 56.2962 26.6761V27.1491H50.9311V26.1094H54.8175C54.8146 25.8139 54.7507 25.5511 54.6257 25.321C54.5007 25.0881 54.326 24.9048 54.1016 24.7713C53.88 24.6378 53.6214 24.571 53.326 24.571C53.0107 24.571 52.7337 24.6477 52.495 24.8011C52.2564 24.9517 52.0703 25.1506 51.9368 25.3977C51.8061 25.642 51.7393 25.9105 51.7365 26.2031V27.1108C51.7365 27.4915 51.8061 27.8182 51.9453 28.0909C52.0845 28.3608 52.2791 28.5682 52.5291 28.7131C52.7791 28.8551 53.0717 28.9261 53.407 28.9261C53.6314 28.9261 53.8345 28.8949 54.0163 28.8324C54.1982 28.767 54.3558 28.6719 54.4893 28.5469C54.6229 28.4219 54.7237 28.267 54.7919 28.0824L56.2322 28.2443C56.1413 28.625 55.968 28.9574 55.7124 29.2415C55.4595 29.5227 55.1357 29.7415 54.7408 29.8977C54.3459 30.0511 53.8942 30.1278 53.3857 30.1278ZM59.1438 21.2727V30H57.6012V21.2727H59.1438ZM60.7301 30V23.4545H62.2727V30H60.7301ZM61.5057 22.5256C61.2614 22.5256 61.0511 22.4446 60.875 22.2827C60.6989 22.1179 60.6108 21.9205 60.6108 21.6903C60.6108 21.4574 60.6989 21.2599 60.875 21.098C61.0511 20.9332 61.2614 20.8509 61.5057 20.8509C61.7528 20.8509 61.9631 20.9332 62.1364 21.098C62.3125 21.2599 62.4006 21.4574 62.4006 21.6903C62.4006 21.9205 62.3125 22.1179 62.1364 22.2827C61.9631 22.4446 61.7528 22.5256 61.5057 22.5256ZM69.7056 23.4545L67.3746 30H65.6701L63.3391 23.4545H64.984L66.4883 28.3168H66.5565L68.065 23.4545H69.7056ZM73.4482 30.1278C72.7919 30.1278 72.2251 29.9915 71.7479 29.7188C71.2734 29.4432 70.9084 29.054 70.6527 28.5511C70.397 28.0455 70.2692 27.4503 70.2692 26.7656C70.2692 26.0923 70.397 25.5014 70.6527 24.9929C70.9112 24.4815 71.272 24.0838 71.7351 23.7997C72.1982 23.5128 72.7422 23.3693 73.3672 23.3693C73.7706 23.3693 74.1513 23.4347 74.5092 23.5653C74.87 23.6932 75.1882 23.892 75.4638 24.1619C75.7422 24.4318 75.9609 24.7756 76.12 25.1932C76.2791 25.608 76.3587 26.1023 76.3587 26.6761V27.1491H70.9936V26.1094H74.88C74.8771 25.8139 74.8132 25.5511 74.6882 25.321C74.5632 25.0881 74.3885 24.9048 74.1641 24.7713C73.9425 24.6378 73.6839 24.571 73.3885 24.571C73.0732 24.571 72.7962 24.6477 72.5575 24.8011C72.3189 24.9517 72.1328 25.1506 71.9993 25.3977C71.8686 25.642 71.8018 25.9105 71.799 26.2031V27.1108C71.799 27.4915 71.8686 27.8182 72.0078 28.0909C72.147 28.3608 72.3416 28.5682 72.5916 28.7131C72.8416 28.8551 73.1342 28.9261 73.4695 28.9261C73.6939 28.9261 73.897 28.8949 74.0788 28.8324C74.2607 28.767 74.4183 28.6719 74.5518 28.5469C74.6854 28.4219 74.7862 28.267 74.8544 28.0824L76.2947 28.2443C76.2038 28.625 76.0305 28.9574 75.7749 29.2415C75.522 29.5227 75.1982 29.7415 74.8033 29.8977C74.4084 30.0511 73.9567 30.1278 73.4482 30.1278ZM77.6637 30V23.4545H79.1594V24.5455H79.2276C79.3469 24.1676 79.5515 23.8764 79.8413 23.6719C80.1339 23.4645 80.4677 23.3608 80.8427 23.3608C80.9279 23.3608 81.0231 23.3651 81.1282 23.3736C81.2362 23.3793 81.3256 23.3892 81.3967 23.4034V24.8224C81.3313 24.7997 81.2276 24.7798 81.0856 24.7628C80.9464 24.7429 80.8114 24.733 80.6808 24.733C80.3995 24.733 80.1467 24.794 79.9222 24.9162C79.7006 25.0355 79.5259 25.2017 79.3981 25.4148C79.2702 25.6278 79.2063 25.8736 79.2063 26.152V30H77.6637ZM83.5795 32.4545C83.3693 32.4545 83.1747 32.4375 82.9957 32.4034C82.8196 32.3722 82.679 32.3352 82.5739 32.2926L82.9318 31.0909C83.1563 31.1563 83.3565 31.1875 83.5327 31.1847C83.7088 31.1818 83.8636 31.1264 83.9972 31.0185C84.1335 30.9134 84.2486 30.7372 84.3423 30.4901L84.4744 30.1364L82.1009 23.4545H83.7372L85.2457 28.3977H85.3139L86.8267 23.4545H88.4673L85.8466 30.7926C85.7244 31.1392 85.5625 31.4361 85.3608 31.6832C85.1591 31.9332 84.9119 32.1236 84.6193 32.2543C84.3295 32.3878 83.983 32.4545 83.5795 32.4545Z" fill="#E03131"/>
<path d="M40.7585 16V7.27273H46.5369V8.79403H42.6037V10.8736H46.1534V12.3949H42.6037V16H40.7585ZM49.5284 16.1236C49.1108 16.1236 48.7386 16.0511 48.4119 15.9062C48.0852 15.7585 47.8267 15.5412 47.6364 15.2543C47.4489 14.9645 47.3551 14.6037 47.3551 14.1719C47.3551 13.8082 47.4219 13.5028 47.5554 13.2557C47.6889 13.0085 47.8707 12.8097 48.1009 12.6591C48.331 12.5085 48.5923 12.3949 48.8849 12.3182C49.1804 12.2415 49.4901 12.1875 49.8139 12.1562C50.1946 12.1165 50.5014 12.0795 50.7344 12.0455C50.9673 12.0085 51.1364 11.9545 51.2415 11.8835C51.3466 11.8125 51.3991 11.7074 51.3991 11.5682V11.5426C51.3991 11.2727 51.3139 11.0639 51.1435 10.9162C50.9759 10.7685 50.7372 10.6946 50.4276 10.6946C50.1009 10.6946 49.8409 10.767 49.6477 10.9119C49.4545 11.054 49.3267 11.233 49.2642 11.4489L47.5852 11.3125C47.6705 10.9148 47.8381 10.571 48.0881 10.2812C48.3381 9.98864 48.6605 9.7642 49.0554 9.60795C49.4531 9.44886 49.9134 9.36932 50.4361 9.36932C50.7997 9.36932 51.1477 9.41193 51.4801 9.49716C51.8153 9.58239 52.1122 9.71449 52.3707 9.89347C52.6321 10.0724 52.8381 10.3026 52.9886 10.5838C53.1392 10.8622 53.2145 11.196 53.2145 11.5852V16H51.4929V15.0923H51.4418C51.3366 15.2969 51.196 15.4773 51.0199 15.6335C50.8438 15.7869 50.6321 15.9077 50.3849 15.9957C50.1378 16.081 49.8523 16.1236 49.5284 16.1236ZM50.0483 14.8707C50.3153 14.8707 50.5511 14.8182 50.7557 14.7131C50.9602 14.6051 51.1207 14.4602 51.2372 14.2784C51.3537 14.0966 51.4119 13.8906 51.4119 13.6605V12.9659C51.3551 13.0028 51.277 13.0369 51.1776 13.0682C51.081 13.0966 50.9716 13.1236 50.8494 13.1491C50.7273 13.1719 50.6051 13.1932 50.483 13.2131C50.3608 13.2301 50.25 13.2457 50.1506 13.2599C49.9375 13.2912 49.7514 13.3409 49.5923 13.4091C49.4332 13.4773 49.3097 13.5696 49.2216 13.6861C49.1335 13.7997 49.0895 13.9418 49.0895 14.1122C49.0895 14.3594 49.179 14.5483 49.358 14.679C49.5398 14.8068 49.7699 14.8707 50.0483 14.8707ZM60.0689 11.321L58.407 11.4233C58.3786 11.2812 58.3175 11.1534 58.2237 11.0398C58.13 10.9233 58.0064 10.831 57.853 10.7628C57.7024 10.6918 57.522 10.6562 57.3118 10.6562C57.0305 10.6562 56.7933 10.7159 56.6001 10.8352C56.407 10.9517 56.3104 11.108 56.3104 11.304C56.3104 11.4602 56.3729 11.5923 56.4979 11.7003C56.6229 11.8082 56.8374 11.8949 57.1413 11.9602L58.326 12.1989C58.9624 12.3295 59.4368 12.5398 59.7493 12.8295C60.0618 13.1193 60.218 13.5 60.218 13.9716C60.218 14.4006 60.0916 14.777 59.8388 15.1009C59.5888 15.4247 59.245 15.6776 58.8075 15.8594C58.3729 16.0384 57.8714 16.1278 57.3033 16.1278C56.4368 16.1278 55.7464 15.9474 55.2322 15.5866C54.7209 15.223 54.4212 14.7287 54.3331 14.1037L56.1186 14.0099C56.1726 14.2741 56.3033 14.4759 56.5107 14.6151C56.718 14.7514 56.9837 14.8196 57.3075 14.8196C57.6257 14.8196 57.8814 14.7585 58.0746 14.6364C58.2706 14.5114 58.37 14.3509 58.3729 14.1548C58.37 13.9901 58.3004 13.8551 58.1641 13.75C58.0277 13.642 57.8175 13.5597 57.5334 13.5028L56.3999 13.277C55.7607 13.1491 55.2848 12.9276 54.9723 12.6122C54.6626 12.2969 54.5078 11.8949 54.5078 11.4062C54.5078 10.9858 54.6214 10.6236 54.8487 10.3196C55.0788 10.0156 55.4013 9.78125 55.8161 9.61648C56.2337 9.4517 56.7223 9.36932 57.282 9.36932C58.1087 9.36932 58.7592 9.54403 59.2337 9.89347C59.7109 10.2429 59.9893 10.7187 60.0689 11.321ZM64.8427 9.45455V10.8182H60.9009V9.45455H64.8427ZM61.7958 7.88636H63.6112V13.9886C63.6112 14.1562 63.6367 14.2869 63.6879 14.3807C63.739 14.4716 63.81 14.5355 63.9009 14.5724C63.9947 14.6094 64.1026 14.6278 64.2248 14.6278C64.31 14.6278 64.3952 14.6207 64.4805 14.6065C64.5657 14.5895 64.631 14.5767 64.6765 14.5682L64.962 15.919C64.8711 15.9474 64.7433 15.9801 64.5785 16.017C64.4137 16.0568 64.2134 16.081 63.9776 16.0895C63.5401 16.1065 63.1566 16.0483 62.8271 15.9148C62.5004 15.7812 62.2461 15.5739 62.0643 15.2926C61.8825 15.0114 61.793 14.6562 61.7958 14.2273V7.88636Z" fill="white"/>
</svg>
